<svg width="45" height="38" viewBox="0 0 45 38" fill="none" xmlns="http://www.w3.org/2000/svg">
<g opacity="0.7">
<path d="M15.178 36C16.0877 36 16.8252 35.3081 16.8252 34.4545C16.8252 33.601 16.0877 32.9091 15.178 32.9091C14.2682 32.9091 13.5308 33.601 13.5308 34.4545C13.5308 35.3081 14.2682 36 15.178 36Z" stroke="white" stroke-width="3" stroke-linecap="round" stroke-linejoin="round"/>
<path d="M38.239 36C39.1488 36 39.8862 35.3081 39.8862 34.4545C39.8862 33.601 39.1488 32.9091 38.239 32.9091C37.3293 32.9091 36.5918 33.601 36.5918 34.4545C36.5918 35.3081 37.3293 36 38.239 36Z" stroke="white" stroke-width="3" stroke-linecap="round" stroke-linejoin="round"/>
<path d="M2 2H8.5889L13.5306 28.2727H39.8862" stroke="white" stroke-width="3" stroke-linecap="round" stroke-linejoin="round"/>
<path d="M13.5305 22.0909H39.2108C39.4012 22.091 39.5859 22.0292 39.7332 21.916C39.8806 21.8027 39.9816 21.6451 40.0189 21.4698L42.9839 7.56074C43.0079 7.44859 43.005 7.33285 42.9754 7.22187C42.9459 7.1109 42.8905 7.00746 42.8131 6.91903C42.7358 6.83059 42.6385 6.75936 42.5283 6.71048C42.4181 6.6616 42.2977 6.63629 42.1758 6.63637H10.2361" stroke="white" stroke-width="3" stroke-linecap="round" stroke-linejoin="round"/>
</g>
</svg>
