<svg width="44" height="38" viewBox="0 0 44 38" fill="none" xmlns="http://www.w3.org/2000/svg">
<path opacity="0.3" d="M38.6677 21.6504L25.3897 34.6542C24.5093 35.5159 23.3155 36 22.0708 36C20.826 36 19.6322 35.5159 18.7518 34.6542L5.4738 21.6527C4.37618 20.5873 3.50428 19.3202 2.90815 17.9239C2.31203 16.5277 2.00341 15.03 2.00003 13.5167C1.99664 12.0033 2.29856 10.5043 2.88843 9.10551C3.47831 7.70676 4.34453 6.43586 5.43737 5.36578C6.53021 4.2957 7.82815 3.44752 9.25666 2.86993C10.6852 2.29234 12.2161 1.99671 13.7616 2.00003C15.3071 2.00334 16.8368 2.30553 18.2627 2.88924C19.6886 3.47295 20.9827 4.32669 22.0708 5.40144C24.2808 3.29131 27.2509 2.1187 30.3376 2.13764C33.4243 2.15658 36.3792 3.36554 38.562 5.50262C40.7449 7.63971 41.98 10.5328 41.9998 13.5553C42.0195 16.5777 40.8224 19.4861 38.6677 21.6504Z" stroke="white" stroke-width="3" stroke-linecap="round" stroke-linejoin="round"/>
</svg>
